#
# Track frame offsets:
#       150
#       14041
#       28267
#       42942
#       58560
#
# Disc length: 992 seconds
#
# Submitted via: cddb-tool 0.4.7
#
#blues,classical,country,data,folk,jazz,newage,reggae,rock,soundtrack,misc
#CATEGORY=misc
DISCID=3f03de05
DTITLE=Stone Temple Pilots (With Chester Bennington) / High Rise
DYEAR=2013
DGENRE=
TTITLE0=Out Of Time
TTITLE1=Black Heart
TTITLE2=Same On The Inside
TTITLE3=Cry Cry
TTITLE4=Tomorrow
EXTD=
EXTT0=
EXTT1=
EXTT2=
EXTT3=
EXTT4=
PLAYORDER=
